<svg width="71" height="42" viewBox="0 0 71 42" fill="none" xmlns="http://www.w3.org/2000/svg">
<path d="M33.443 0.0325928L29.3248 0.0325928V3.82715H33.443V0.0325928Z" fill="#524A76"/>
<path d="M37.5616 0.0325928L33.4435 0.0325928V3.82715H37.5616V0.0325928Z" fill="#524A76"/>
<path d="M41.6775 0.0325928L37.5593 0.0325928V3.82715H41.6775V0.0325928Z" fill="#524A76"/>
<path d="M25.2071 3.82495H21.089V7.6195H25.2071V3.82495Z" fill="#524A76"/>
<path d="M29.3243 3.82495H25.2062V7.6195H29.3243V3.82495Z" fill="#524A76"/>
<path d="M33.443 3.82495H29.3248V7.6195H33.443V3.82495Z" fill="#6C8DBC"/>
<path d="M37.5616 3.82495H33.4435V7.6195H37.5616V3.82495Z" fill="#6C8DBC"/>
<path d="M41.6775 3.82495H37.5593V7.6195H41.6775V3.82495Z" fill="#6C8DBC"/>
<path d="M45.7947 3.82495H41.6765V7.6195H45.7947V3.82495Z" fill="#524A76"/>
<path d="M49.9133 3.82495H45.7952V7.6195H49.9133V3.82495Z" fill="#524A76"/>
<path d="M21.0885 7.61963H16.9703V11.4142H21.0885V7.61963Z" fill="#524A76"/>
<path d="M25.2071 7.61963H21.089V11.4142H25.2071V7.61963Z" fill="#6C8DBC"/>
<path d="M29.3243 7.61963H25.2062V11.4142H29.3243V7.61963Z" fill="#6C8DBC"/>
<path d="M33.443 7.61963H29.3248V11.4142H33.443V7.61963Z" fill="#6C8DBC"/>
<path d="M37.5616 7.61963H33.4435V11.4142H37.5616V7.61963Z" fill="#B6C9E3"/>
<path d="M41.6775 7.61963H37.5593V11.4142H41.6775V7.61963Z" fill="#B6C9E3"/>
<path d="M45.7947 7.61963H41.6765V11.4142H45.7947V7.61963Z" fill="#6C8DBC"/>
<path d="M49.9133 7.61963H45.7952V11.4142H49.9133V7.61963Z" fill="#6C8DBC"/>
<path d="M54.032 7.61963H49.9138V11.4142H54.032V7.61963Z" fill="#524A76"/>
<path d="M12.8555 11.4139H8.7373V15.2085H12.8555V11.4139Z" fill="#6C8DBC"/>
<path d="M16.9698 11.4139H12.8517V15.2085H16.9698V11.4139Z" fill="#6C8DBC"/>
<path d="M21.0885 11.4139H16.9703V15.2085H21.0885V11.4139Z" fill="#524A76"/>
<path d="M25.2071 11.4139H21.089V15.2085H25.2071V11.4139Z" fill="#6C8DBC"/>
<path d="M29.3243 11.4139H25.2062V15.2085H29.3243V11.4139Z" fill="#B6C9E3"/>
<path d="M33.443 11.4139H29.3248V15.2085H33.443V11.4139Z" fill="#F1F8F1"/>
<path d="M37.5616 11.4139H33.4435V15.2085H37.5616V11.4139Z" fill="#B6C9E3"/>
<path d="M41.6775 11.4139H37.5593V15.2085H41.6775V11.4139Z" fill="#B6C9E3"/>
<path d="M45.7947 11.4139H41.6765V15.2085H45.7947V11.4139Z" fill="#B6C9E3"/>
<path d="M49.9133 11.4139H45.7952V15.2085H49.9133V11.4139Z" fill="#6C8DBC"/>
<path d="M54.032 11.4139H49.9138V15.2085H54.032V11.4139Z" fill="#524A76"/>
<path d="M58.1492 11.4139H54.031V15.2085H58.1492V11.4139Z" fill="#6C8DBC"/>
<path d="M62.2663 11.4139H58.1482V15.2085H62.2663V11.4139Z" fill="#6C8DBC"/>
<path d="M8.73534 15.2086H4.61719V19.0032H8.73534V15.2086Z" fill="#6C8DBC"/>
<path d="M12.8555 15.2086H8.7373V19.0032H12.8555V15.2086Z" fill="#E7E7E7"/>
<path d="M16.9698 15.2086H12.8517V19.0032H16.9698V15.2086Z" fill="#524A76"/>
<path d="M21.0885 15.2086H16.9703V19.0032H21.0885V15.2086Z" fill="#6C8DBC"/>
<path d="M25.2071 15.2086H21.089V19.0032H25.2071V15.2086Z" fill="#B6C9E3"/>
<path d="M29.3243 15.2086H25.2062V19.0032H29.3243V15.2086Z" fill="#F1F8F1"/>
<path d="M33.443 15.2086H29.3248V19.0032H33.443V15.2086Z" fill="#6C8DBC"/>
<path d="M37.5616 15.2086H33.4435V19.0032H37.5616V15.2086Z" fill="#6C8DBC"/>
<path d="M41.6775 15.2086H37.5593V19.0032H41.6775V15.2086Z" fill="#B6C9E3"/>
<path d="M45.7947 15.2086H41.6765V19.0032H45.7947V15.2086Z" fill="#6C8DBC"/>
<path d="M49.9133 15.2086H45.7952V19.0032H49.9133V15.2086Z" fill="#6C8DBC"/>
<path d="M54.032 15.2086H49.9138V19.0032H54.032V15.2086Z" fill="#B6C9E3"/>
<path d="M58.1492 15.2086H54.031V19.0032H58.1492V15.2086Z" fill="#524A76"/>
<path d="M62.2663 15.2086H58.1482V19.0032H62.2663V15.2086Z" fill="#E7E7E7"/>
<path d="M66.3837 15.2086H62.2655V19.0032H66.3837V15.2086Z" fill="#6C8DBC"/>
<path d="M4.61816 19.0031H0.5L0.5 22.7976H4.61816V19.0031Z" fill="#6C8DBC"/>
<path d="M8.73534 19.0031H4.61719V22.7976H8.73534V19.0031Z" fill="#E7E7E7"/>
<path d="M12.8555 19.0031H8.7373V22.7976H12.8555V19.0031Z" fill="#6C8DBC"/>
<path d="M16.9698 19.0031H12.8517V22.7976H16.9698V19.0031Z" fill="#524A76"/>
<path d="M21.0885 19.0031H16.9703V22.7976H21.0885V19.0031Z" fill="#B6C9E3"/>
<path d="M25.2071 19.0031H21.089V22.7976H25.2071V19.0031Z" fill="#B6C9E3"/>
<path d="M29.3243 19.0031H25.2062V22.7976H29.3243V19.0031Z" fill="#B6C9E3"/>
<path d="M33.443 19.0031H29.3248V22.7976H33.443V19.0031Z" fill="#B6C9E3"/>
<path d="M37.5616 19.0031H33.4435V22.7976H37.5616V19.0031Z" fill="#B6C9E3"/>
<path d="M41.6775 19.0031H37.5593V22.7976H41.6775V19.0031Z" fill="#6C8DBC"/>
<path d="M45.7947 19.0031H41.6765V22.7976H45.7947V19.0031Z" fill="#6C8DBC"/>
<path d="M49.9133 19.0031H45.7952V22.7976H49.9133V19.0031Z" fill="#B6C9E3"/>
<path d="M54.032 19.0031H49.9138V22.7976H54.032V19.0031Z" fill="#B6C9E3"/>
<path d="M58.1492 19.0031H54.031V22.7976H58.1492V19.0031Z" fill="#524A76"/>
<path d="M62.2663 19.0031H58.1482V22.7976H62.2663V19.0031Z" fill="#6C8DBC"/>
<path d="M66.3837 19.0031H62.2655V22.7976H66.3837V19.0031Z" fill="#E7E7E7"/>
<path d="M70.4994 19.0031H66.3812V22.7976H70.4994V19.0031Z" fill="#6C8DBC"/>
<path d="M8.73534 22.7957H4.61719V26.5902H8.73534V22.7957Z" fill="#6C8DBC"/>
<path d="M12.8555 22.7957H8.7373V26.5902H12.8555V22.7957Z" fill="#E7E7E7"/>
<path d="M16.9698 22.7957H12.8517V26.5902H16.9698V22.7957Z" fill="#E7E7E7"/>
<path d="M21.0885 22.7957H16.9703V26.5902H21.0885V22.7957Z" fill="#B6C9E3"/>
<path d="M25.2071 22.7957H21.089V26.5902H25.2071V22.7957Z" fill="#6C8DBC"/>
<path d="M29.3243 22.7957H25.2062V26.5902H29.3243V22.7957Z" fill="#6C8DBC"/>
<path d="M33.443 22.7957H29.3248V26.5902H33.443V22.7957Z" fill="#6C8DBC"/>
<path d="M37.5616 22.7957H33.4435V26.5902H37.5616V22.7957Z" fill="#6C8DBC"/>
<path d="M41.6775 22.7957H37.5593V26.5902H41.6775V22.7957Z" fill="#B6C9E3"/>
<path d="M45.7947 22.7957H41.6765V26.5902H45.7947V22.7957Z" fill="#B6C9E3"/>
<path d="M49.9133 22.7957H45.7952V26.5902H49.9133V22.7957Z" fill="#B6C9E3"/>
<path d="M54.032 22.7957H49.9138V26.5902H54.032V22.7957Z" fill="#6C8DBC"/>
<path d="M58.1492 22.7957H54.031V26.5902H58.1492V22.7957Z" fill="#E7E7E7"/>
<path d="M62.2663 22.7957H58.1482V26.5902H62.2663V22.7957Z" fill="#E7E7E7"/>
<path d="M66.3837 22.7957H62.2655V26.5902H66.3837V22.7957Z" fill="#6C8DBC"/>
<path d="M12.8555 26.5901H8.7373V30.3846H12.8555V26.5901Z" fill="#6C8DBC"/>
<path d="M16.9698 26.5901H12.8517V30.3846H16.9698V26.5901Z" fill="#6C8DBC"/>
<path d="M21.0885 26.5901H16.9703V30.3846H21.0885V26.5901Z" fill="#E7E7E7"/>
<path d="M25.2071 26.5901H21.089V30.3846H25.2071V26.5901Z" fill="#E7E7E7"/>
<path d="M29.3243 26.5901H25.2062V30.3846H29.3243V26.5901Z" fill="#E7E7E7"/>
<path d="M33.443 26.5901H29.3248V30.3846H33.443V26.5901Z" fill="#E7E7E7"/>
<path d="M37.5616 26.5901H33.4435V30.3846H37.5616V26.5901Z" fill="#E7E7E7"/>
<path d="M41.6775 26.5901H37.5593V30.3846H41.6775V26.5901Z" fill="#E7E7E7"/>
<path d="M45.7947 26.5901H41.6765V30.3846H45.7947V26.5901Z" fill="#E7E7E7"/>
<path d="M49.9133 26.5901H45.7952V30.3846H49.9133V26.5901Z" fill="#E7E7E7"/>
<path d="M54.032 26.5901H49.9138V30.3846H54.032V26.5901Z" fill="#E7E7E7"/>
<path d="M58.1492 26.5901H54.031V30.3846H58.1492V26.5901Z" fill="#6C8DBC"/>
<path d="M62.2663 26.5901H58.1482V30.3846H62.2663V26.5901Z" fill="#6C8DBC"/>
<path d="M21.0885 30.3848H16.9703V34.1793H21.0885V30.3848Z" fill="#6C8DBC"/>
<path d="M25.2071 30.3848H21.089V34.1793H25.2071V30.3848Z" fill="#6C8DBC"/>
<path d="M29.3243 30.3848H25.2062V34.1793H29.3243V30.3848Z" fill="#6C8DBC"/>
<path d="M33.443 30.3848H29.3248V34.1793H33.443V30.3848Z" fill="#6C8DBC"/>
<path d="M37.5616 30.3848H33.4435V34.1793H37.5616V30.3848Z" fill="#6C8DBC"/>
<path d="M41.6775 30.3848H37.5593V34.1793H41.6775V30.3848Z" fill="#6C8DBC"/>
<path d="M45.7947 30.3848H41.6765V34.1793H45.7947V30.3848Z" fill="#6C8DBC"/>
<path d="M49.9133 30.3848H45.7952V34.1793H49.9133V30.3848Z" fill="#6C8DBC"/>
<path d="M54.032 30.3848H49.9138V34.1793H54.032V30.3848Z" fill="#6C8DBC"/>
<path d="M25.2071 34.1791H21.089V37.9736H25.2071V34.1791Z" fill="#524A76"/>
<path d="M29.3243 34.1791H25.2062V37.9736H29.3243V34.1791Z" fill="#524A76"/>
<path d="M33.443 34.1791H29.3248V37.9736H33.443V34.1791Z" fill="#B6C9E3"/>
<path d="M37.5616 34.1791H33.4435V37.9736H37.5616V34.1791Z" fill="#6C8DBC"/>
<path d="M41.6775 34.1791H37.5593V37.9736H41.6775V34.1791Z" fill="#6C8DBC"/>
<path d="M45.7947 34.1791H41.6765V37.9736H45.7947V34.1791Z" fill="#524A76"/>
<path d="M49.9133 34.1791H45.7952V37.9736H49.9133V34.1791Z" fill="#524A76"/>
<path d="M33.443 37.9739H29.3248V41.7684H33.443V37.9739Z" fill="#524A76"/>
<path d="M37.5616 37.9739H33.4435V41.7684H37.5616V37.9739Z" fill="#524A76"/>
<path d="M41.6775 37.9739H37.5593V41.7684H41.6775V37.9739Z" fill="#524A76"/>
</svg>
