<svg width="94" height="63" viewBox="0 0 94 63" fill="none" xmlns="http://www.w3.org/2000/svg">
<path d="M44.0271 0L38.5234 0V5.71353H44.0271V0Z" fill="#524A76"/>
<path d="M49.529 0L44.0254 0V5.71353H49.529V0Z" fill="#524A76"/>
<path d="M55.031 0L49.5273 0V5.71353H55.031V0Z" fill="#524A76"/>
<path d="M33.0193 5.70996L27.5156 5.70996V11.4235L33.0193 11.4235V5.70996Z" fill="#524A76"/>
<path d="M38.5212 5.70996L33.0176 5.70996V11.4235L38.5212 11.4235V5.70996Z" fill="#524A76"/>
<path d="M44.0271 5.70996L38.5234 5.70996V11.4235L44.0271 11.4235V5.70996Z" fill="#6C8DBC"/>
<path d="M49.529 5.70996L44.0254 5.70996V11.4235L49.529 11.4235V5.70996Z" fill="#6C8DBC"/>
<path d="M55.031 5.70996L49.5273 5.70996V11.4235L55.031 11.4235V5.70996Z" fill="#6C8DBC"/>
<path d="M60.5349 5.70996L55.0312 5.70996V11.4235L60.5349 11.4235V5.70996Z" fill="#524A76"/>
<path d="M66.0368 5.70996L60.5332 5.70996V11.4235L66.0368 11.4235V5.70996Z" fill="#524A76"/>
<path d="M27.5154 11.4241L22.0117 11.4241V17.1376L27.5154 17.1376V11.4241Z" fill="#524A76"/>
<path d="M33.0193 11.4241L27.5156 11.4241V17.1376L33.0193 17.1376V11.4241Z" fill="#6C8DBC"/>
<path d="M38.5212 11.4241L33.0176 11.4241V17.1376L38.5212 17.1376V11.4241Z" fill="#6C8DBC"/>
<path d="M44.0271 11.4241L38.5234 11.4241V17.1376L44.0271 17.1376V11.4241Z" fill="#6C8DBC"/>
<path d="M49.529 11.4241L44.0254 11.4241V17.1376L49.529 17.1376V11.4241Z" fill="#B6C9E3"/>
<path d="M55.031 11.4241L49.5273 11.4241V17.1376L55.031 17.1376V11.4241Z" fill="#B6C9E3"/>
<path d="M60.5349 11.4241L55.0312 11.4241V17.1376L60.5349 17.1376V11.4241Z" fill="#6C8DBC"/>
<path d="M66.0368 11.4241L60.5332 11.4241V17.1376L66.0368 17.1376V11.4241Z" fill="#6C8DBC"/>
<path d="M71.5427 11.4241L66.0391 11.4241V17.1376L71.5427 17.1376V11.4241Z" fill="#524A76"/>
<path d="M16.5114 17.1382L11.0078 17.1382V22.8517L16.5114 22.8517V17.1382Z" fill="#6C8DBC"/>
<path d="M22.0095 17.1382L16.5059 17.1382V22.8517L22.0095 22.8517V17.1382Z" fill="#6C8DBC"/>
<path d="M27.5154 17.1382L22.0117 17.1382V22.8517L27.5154 22.8517V17.1382Z" fill="#524A76"/>
<path d="M33.0193 17.1382L27.5156 17.1382V22.8517L33.0193 22.8517V17.1382Z" fill="#6C8DBC"/>
<path d="M38.5212 17.1382L33.0176 17.1382V22.8517L38.5212 22.8517V17.1382Z" fill="#B6C9E3"/>
<path d="M44.0271 17.1382L38.5234 17.1382V22.8517L44.0271 22.8517V17.1382Z" fill="#F1F8F1"/>
<path d="M49.529 17.1382L44.0254 17.1382V22.8517L49.529 22.8517V17.1382Z" fill="#B6C9E3"/>
<path d="M55.031 17.1382L49.5273 17.1382V22.8517L55.031 22.8517V17.1382Z" fill="#B6C9E3"/>
<path d="M60.5349 17.1382L55.0312 17.1382V22.8517L60.5349 22.8517V17.1382Z" fill="#B6C9E3"/>
<path d="M66.0368 17.1382L60.5332 17.1382V22.8517L66.0368 22.8517V17.1382Z" fill="#6C8DBC"/>
<path d="M71.5427 17.1382L66.0391 17.1382V22.8517L71.5427 22.8517V17.1382Z" fill="#524A76"/>
<path d="M77.0466 17.1382L71.543 17.1382V22.8517L77.0466 22.8517V17.1382Z" fill="#6C8DBC"/>
<path d="M82.5466 17.1382L77.043 17.1382V22.8517L82.5466 22.8517V17.1382Z" fill="#6C8DBC"/>
<path d="M11.0056 22.8503L5.50195 22.8503V28.5638L11.0056 28.5638V22.8503Z" fill="#6C8DBC"/>
<path d="M16.5114 22.8503L11.0078 22.8503V28.5638L16.5114 28.5638V22.8503Z" fill="#E7E7E7"/>
<path d="M22.0095 22.8503L16.5059 22.8503V28.5638L22.0095 28.5638V22.8503Z" fill="#524A76"/>
<path d="M27.5154 22.8503L22.0117 22.8503V28.5638L27.5154 28.5638V22.8503Z" fill="#6C8DBC"/>
<path d="M33.0193 22.8503L27.5156 22.8503V28.5638L33.0193 28.5638V22.8503Z" fill="#B6C9E3"/>
<path d="M38.5212 22.8503L33.0176 22.8503V28.5638L38.5212 28.5638V22.8503Z" fill="#F1F8F1"/>
<path d="M44.0271 22.8503L38.5234 22.8503V28.5638L44.0271 28.5638V22.8503Z" fill="#6C8DBC"/>
<path d="M49.529 22.8503L44.0254 22.8503V28.5638L49.529 28.5638V22.8503Z" fill="#6C8DBC"/>
<path d="M55.031 22.8503L49.5273 22.8503V28.5638L55.031 28.5638V22.8503Z" fill="#B6C9E3"/>
<path d="M60.5349 22.8503L55.0312 22.8503V28.5638L60.5349 28.5638V22.8503Z" fill="#6C8DBC"/>
<path d="M66.0368 22.8503L60.5332 22.8503V28.5638L66.0368 28.5638V22.8503Z" fill="#6C8DBC"/>
<path d="M71.5427 22.8503L66.0391 22.8503V28.5638L71.5427 28.5638V22.8503Z" fill="#B6C9E3"/>
<path d="M77.0466 22.8503L71.543 22.8503V28.5638L77.0466 28.5638V22.8503Z" fill="#524A76"/>
<path d="M82.5466 22.8503L77.043 22.8503V28.5638L82.5466 28.5638V22.8503Z" fill="#E7E7E7"/>
<path d="M88.0486 22.8503L82.5449 22.8503V28.5638L88.0486 28.5638V22.8503Z" fill="#6C8DBC"/>
<path d="M5.50364 28.5644L0 28.5644L0 34.2779H5.50364V28.5644Z" fill="#6C8DBC"/>
<path d="M11.0056 28.5644L5.50195 28.5644V34.2779H11.0056V28.5644Z" fill="#E7E7E7"/>
<path d="M16.5114 28.5644L11.0078 28.5644V34.2779H16.5114V28.5644Z" fill="#6C8DBC"/>
<path d="M22.0095 28.5644L16.5059 28.5644V34.2779H22.0095V28.5644Z" fill="#524A76"/>
<path d="M27.5154 28.5644L22.0117 28.5644V34.2779H27.5154V28.5644Z" fill="#B6C9E3"/>
<path d="M33.0193 28.5644L27.5156 28.5644V34.2779H33.0193V28.5644Z" fill="#B6C9E3"/>
<path d="M38.5212 28.5644L33.0176 28.5644V34.2779H38.5212V28.5644Z" fill="#B6C9E3"/>
<path d="M44.0271 28.5644L38.5234 28.5644V34.2779H44.0271V28.5644Z" fill="#B6C9E3"/>
<path d="M49.529 28.5644L44.0254 28.5644V34.2779H49.529V28.5644Z" fill="#B6C9E3"/>
<path d="M55.031 28.5644L49.5273 28.5644V34.2779H55.031V28.5644Z" fill="#6C8DBC"/>
<path d="M60.5349 28.5644L55.0312 28.5644V34.2779H60.5349V28.5644Z" fill="#6C8DBC"/>
<path d="M66.0368 28.5644L60.5332 28.5644V34.2779H66.0368V28.5644Z" fill="#B6C9E3"/>
<path d="M71.5427 28.5644L66.0391 28.5644V34.2779H71.5427V28.5644Z" fill="#B6C9E3"/>
<path d="M77.0466 28.5644L71.543 28.5644V34.2779H77.0466V28.5644Z" fill="#524A76"/>
<path d="M82.5466 28.5644L77.043 28.5644V34.2779H82.5466V28.5644Z" fill="#6C8DBC"/>
<path d="M88.0486 28.5644L82.5449 28.5644V34.2779H88.0486V28.5644Z" fill="#E7E7E7"/>
<path d="M93.5505 28.5644L88.0469 28.5644V34.2779H93.5505V28.5644Z" fill="#6C8DBC"/>
<path d="M11.0056 34.2743H5.50195V39.9878H11.0056V34.2743Z" fill="#6C8DBC"/>
<path d="M16.5114 34.2743H11.0078V39.9878H16.5114V34.2743Z" fill="#E7E7E7"/>
<path d="M22.0095 34.2743H16.5059V39.9878H22.0095V34.2743Z" fill="#E7E7E7"/>
<path d="M27.5154 34.2743H22.0117V39.9878H27.5154V34.2743Z" fill="#B6C9E3"/>
<path d="M33.0193 34.2743H27.5156V39.9878H33.0193V34.2743Z" fill="#6C8DBC"/>
<path d="M38.5212 34.2743H33.0176V39.9878H38.5212V34.2743Z" fill="#6C8DBC"/>
<path d="M44.0271 34.2743H38.5234V39.9878H44.0271V34.2743Z" fill="#6C8DBC"/>
<path d="M49.529 34.2743H44.0254V39.9878H49.529V34.2743Z" fill="#6C8DBC"/>
<path d="M55.031 34.2743H49.5273V39.9878H55.031V34.2743Z" fill="#B6C9E3"/>
<path d="M60.5349 34.2743H55.0312V39.9878H60.5349V34.2743Z" fill="#B6C9E3"/>
<path d="M66.0368 34.2743H60.5332V39.9878H66.0368V34.2743Z" fill="#B6C9E3"/>
<path d="M71.5427 34.2743H66.0391V39.9878H71.5427V34.2743Z" fill="#6C8DBC"/>
<path d="M77.0466 34.2743H71.543V39.9878H77.0466V34.2743Z" fill="#E7E7E7"/>
<path d="M82.5466 34.2743H77.043V39.9878H82.5466V34.2743Z" fill="#E7E7E7"/>
<path d="M88.0486 34.2743H82.5449V39.9878H88.0486V34.2743Z" fill="#6C8DBC"/>
<path d="M16.5114 39.9885H11.0078V45.702H16.5114V39.9885Z" fill="#6C8DBC"/>
<path d="M22.0095 39.9885H16.5059V45.702H22.0095V39.9885Z" fill="#6C8DBC"/>
<path d="M27.5154 39.9885H22.0117V45.702H27.5154V39.9885Z" fill="#E7E7E7"/>
<path d="M33.0193 39.9885H27.5156V45.702H33.0193V39.9885Z" fill="#E7E7E7"/>
<path d="M38.5212 39.9885H33.0176V45.702H38.5212V39.9885Z" fill="#E7E7E7"/>
<path d="M44.0271 39.9885H38.5234V45.702H44.0271V39.9885Z" fill="#E7E7E7"/>
<path d="M49.529 39.9885H44.0254V45.702H49.529V39.9885Z" fill="#E7E7E7"/>
<path d="M55.031 39.9885H49.5273V45.702H55.031V39.9885Z" fill="#E7E7E7"/>
<path d="M60.5349 39.9885H55.0312V45.702H60.5349V39.9885Z" fill="#E7E7E7"/>
<path d="M66.0368 39.9885H60.5332V45.702H66.0368V39.9885Z" fill="#E7E7E7"/>
<path d="M71.5427 39.9885H66.0391V45.702H71.5427V39.9885Z" fill="#E7E7E7"/>
<path d="M77.0466 39.9885H71.543V45.702H77.0466V39.9885Z" fill="#6C8DBC"/>
<path d="M82.5466 39.9885H77.043V45.702H82.5466V39.9885Z" fill="#6C8DBC"/>
<path d="M27.5154 45.7026H22.0117V51.4161H27.5154V45.7026Z" fill="#6C8DBC"/>
<path d="M33.0193 45.7026H27.5156V51.4161H33.0193V45.7026Z" fill="#6C8DBC"/>
<path d="M38.5212 45.7026H33.0176V51.4161H38.5212V45.7026Z" fill="#6C8DBC"/>
<path d="M44.0271 45.7026H38.5234V51.4161H44.0271V45.7026Z" fill="#6C8DBC"/>
<path d="M49.529 45.7026H44.0254V51.4161H49.529V45.7026Z" fill="#6C8DBC"/>
<path d="M55.031 45.7026H49.5273V51.4161H55.031V45.7026Z" fill="#6C8DBC"/>
<path d="M60.5349 45.7026H55.0312V51.4161H60.5349V45.7026Z" fill="#6C8DBC"/>
<path d="M66.0368 45.7026H60.5332V51.4161H66.0368V45.7026Z" fill="#6C8DBC"/>
<path d="M71.5427 45.7026H66.0391V51.4161H71.5427V45.7026Z" fill="#6C8DBC"/>
<path d="M33.0193 51.4147H27.5156V57.1282H33.0193V51.4147Z" fill="#524A76"/>
<path d="M38.5212 51.4147H33.0176V57.1282H38.5212V51.4147Z" fill="#524A76"/>
<path d="M44.0271 51.4147H38.5234V57.1282H44.0271V51.4147Z" fill="#B6C9E3"/>
<path d="M49.529 51.4147H44.0254V57.1282H49.529V51.4147Z" fill="#6C8DBC"/>
<path d="M55.031 51.4147H49.5273V57.1282H55.031V51.4147Z" fill="#6C8DBC"/>
<path d="M60.5349 51.4147H55.0312V57.1282H60.5349V51.4147Z" fill="#524A76"/>
<path d="M66.0368 51.4147H60.5332V57.1282H66.0368V51.4147Z" fill="#524A76"/>
<path d="M44.0271 57.1288H38.5234V62.8423H44.0271V57.1288Z" fill="#524A76"/>
<path d="M49.529 57.1288H44.0254V62.8423H49.529V57.1288Z" fill="#524A76"/>
<path d="M55.031 57.1288H49.5273V62.8423H55.031V57.1288Z" fill="#524A76"/>
</svg>
