<svg width="55" height="55" viewBox="0 0 55 55" fill="none" xmlns="http://www.w3.org/2000/svg">
<path d="M54.8767 0L50.9582 0V3.92013H54.8767V0Z" fill="#524A76"/>
<path d="M47.0374 3.91992H43.1189V7.84004H47.0374V3.91992Z" fill="#524A76"/>
<path d="M50.9562 3.91992H47.0376V7.84004H50.9562V3.91992Z" fill="#524A76"/>
<path d="M27.4383 7.84338H23.5198V11.7635H27.4383V7.84338Z" fill="#524A76"/>
<path d="M43.1169 7.84338H39.1983V11.7635H43.1169V7.84338Z" fill="#524A76"/>
<path d="M47.0374 7.84338H43.1189V11.7635H47.0374V7.84338Z" fill="#6C8DBC"/>
<path d="M50.9562 7.84338H47.0376V11.7635H50.9562V7.84338Z" fill="#524A76"/>
<path d="M23.5177 11.7633H19.5992V15.6834H23.5177V11.7633Z" fill="#524A76"/>
<path d="M39.1982 11.7633H35.2797V15.6834H39.1982V11.7633Z" fill="#524A76"/>
<path d="M43.1169 11.7633H39.1983V15.6834H43.1169V11.7633Z" fill="#6C8DBC"/>
<path d="M47.0374 11.7633H43.1189V15.6834H47.0374V11.7633Z" fill="#524A76"/>
<path d="M19.599 15.6836H15.6805V19.6037H19.599V15.6836Z" fill="#524A76"/>
<path d="M23.5177 15.6836H19.5992V19.6037H23.5177V15.6836Z" fill="#524A76"/>
<path d="M31.357 15.6836H27.4384V19.6037H31.357V15.6836Z" fill="#524A76"/>
<path d="M35.2756 15.6836H31.3571V19.6037H35.2756V15.6836Z" fill="#524A76"/>
<path d="M39.1982 15.6836H35.2797V19.6037H39.1982V15.6836Z" fill="#B6C9E3"/>
<path d="M43.1169 15.6836H39.1983V19.6037H43.1169V15.6836Z" fill="#524A76"/>
<path d="M15.6784 19.6067H11.7599V23.5268H15.6784V19.6067Z" fill="#524A76"/>
<path d="M19.599 19.6067H15.6805V23.5268H19.599V19.6067Z" fill="#6C8DBC"/>
<path d="M23.5177 19.6067H19.5992V23.5268H23.5177V19.6067Z" fill="#6C8DBC"/>
<path d="M27.4383 19.6067H23.5198V23.5268H27.4383V19.6067Z" fill="#524A76"/>
<path d="M31.357 19.6067H27.4384V23.5268H31.357V19.6067Z" fill="#6C8DBC"/>
<path d="M35.2756 19.6067H31.3571V23.5268H35.2756V19.6067Z" fill="#6C8DBC"/>
<path d="M39.1982 19.6067H35.2797V23.5268H39.1982V19.6067Z" fill="#524A76"/>
<path d="M11.7579 23.527H7.83929V27.4471H11.7579V23.527Z" fill="#524A76"/>
<path d="M15.6784 23.527H11.7599V27.4471H15.6784V23.527Z" fill="#6C8DBC"/>
<path d="M19.599 23.527H15.6805V27.4471H19.599V23.527Z" fill="#B6C9E3"/>
<path d="M23.5177 23.527H19.5992V27.4471H23.5177V23.527Z" fill="#6C8DBC"/>
<path d="M27.4383 23.527H23.5198V27.4471H27.4383V23.527Z" fill="#B6C9E3"/>
<path d="M31.357 23.527H27.4384V27.4471H31.357V23.527Z" fill="#6C8DBC"/>
<path d="M35.2756 23.527H31.3571V27.4471H35.2756V23.527Z" fill="#6C8DBC"/>
<path d="M39.1982 23.527H35.2797V27.4471H39.1982V23.527Z" fill="#524A76"/>
<path d="M50.9562 23.527H47.0376V27.4471H50.9562V23.527Z" fill="#524A76"/>
<path d="M7.8372 27.4501H3.91864V31.3702H7.8372V27.4501Z" fill="#524A76"/>
<path d="M11.7579 27.4501H7.83929V31.3702H11.7579V27.4501Z" fill="#6C8DBC"/>
<path d="M15.6784 27.4501H11.7599V31.3702H15.6784V27.4501Z" fill="#B6C9E3"/>
<path d="M19.599 27.4501H15.6805V31.3702H19.599V27.4501Z" fill="#E7E7E7"/>
<path d="M23.5177 27.4501H19.5992V31.3702H23.5177V27.4501Z" fill="#B6C9E3"/>
<path d="M27.4383 27.4501H23.5198V31.3702H27.4383V27.4501Z" fill="#E7E7E7"/>
<path d="M31.357 27.4501H27.4384V31.3702H31.357V27.4501Z" fill="#B6C9E3"/>
<path d="M35.2756 27.4501H31.3571V31.3702H35.2756V27.4501Z" fill="#524A76"/>
<path d="M43.1169 27.4501H39.1983V31.3702H43.1169V27.4501Z" fill="#524A76"/>
<path d="M47.0374 27.4501H43.1189V31.3702H47.0374V27.4501Z" fill="#524A76"/>
<path d="M3.91854 31.3702H0L0 35.2903H3.91854V31.3702Z" fill="#524A76"/>
<path d="M7.8372 31.3702H3.91864V35.2903H7.8372V31.3702Z" fill="#6C8DBC"/>
<path d="M11.7579 31.3702H7.83929V35.2903H11.7579V31.3702Z" fill="#B6C9E3"/>
<path d="M15.6784 31.3702H11.7599V35.2903H15.6784V31.3702Z" fill="#E7E7E7"/>
<path d="M19.599 31.3702H15.6805V35.2903H19.599V31.3702Z" fill="#B6C9E3"/>
<path d="M23.5177 31.3702H19.5992V35.2903H23.5177V31.3702Z" fill="#E7E7E7"/>
<path d="M27.4383 31.3702H23.5198V35.2903H27.4383V31.3702Z" fill="#B6C9E3"/>
<path d="M31.357 31.3702H27.4384V35.2903H31.357V31.3702Z" fill="#6C8DBC"/>
<path d="M35.2756 31.3702H31.3571V35.2903H35.2756V31.3702Z" fill="#6C8DBC"/>
<path d="M39.1982 31.3702H35.2797V35.2903H39.1982V31.3702Z" fill="#524A76"/>
<path d="M43.1169 31.3702H39.1983V35.2903H43.1169V31.3702Z" fill="#524A76"/>
<path d="M3.91854 35.2935H0L0 39.2136H3.91854V35.2935Z" fill="#524A76"/>
<path d="M7.8372 35.2935H3.91864V39.2136H7.8372V35.2935Z" fill="#B6C9E3"/>
<path d="M11.7579 35.2935H7.83929V39.2136H11.7579V35.2935Z" fill="#F1F8F1"/>
<path d="M15.6784 35.2935H11.7599V39.2136H15.6784V35.2935Z" fill="#E7E7E7"/>
<path d="M19.599 35.2935H15.6805V39.2136H19.599V35.2935Z" fill="#F1F8F1"/>
<path d="M23.5177 35.2935H19.5992V39.2136H23.5177V35.2935Z" fill="#B6C9E3"/>
<path d="M27.4383 35.2935H23.5198V39.2136H27.4383V35.2935Z" fill="#E7E7E7"/>
<path d="M31.357 35.2935H27.4384V39.2136H31.357V35.2935Z" fill="#B6C9E3"/>
<path d="M35.2756 35.2935H31.3571V39.2136H35.2756V35.2935Z" fill="#6C8DBC"/>
<path d="M39.1982 35.2935H35.2797V39.2136H39.1982V35.2935Z" fill="#524A76"/>
<path d="M3.91854 39.2136H0L0 43.1337H3.91854V39.2136Z" fill="#524A76"/>
<path d="M7.8372 39.2136H3.91864V43.1337H7.8372V39.2136Z" fill="#E7E7E7"/>
<path d="M11.7579 39.2136H7.83929V43.1337H11.7579V39.2136Z" fill="#F1F8F1"/>
<path d="M15.6784 39.2136H11.7599V43.1337H15.6784V39.2136Z" fill="#F1F8F1"/>
<path d="M19.599 39.2136H15.6805V43.1337H19.599V39.2136Z" fill="#E7E7E7"/>
<path d="M23.5177 39.2136H19.5992V43.1337H23.5177V39.2136Z" fill="#E7E7E7"/>
<path d="M27.4383 39.2136H23.5198V43.1337H27.4383V39.2136Z" fill="#B6C9E3"/>
<path d="M31.357 39.2136H27.4384V43.1337H31.357V39.2136Z" fill="#6C8DBC"/>
<path d="M35.2756 39.2136H31.3571V43.1337H35.2756V39.2136Z" fill="#524A76"/>
<path d="M3.91854 43.1337H0L0 47.0538H3.91854V43.1337Z" fill="#524A76"/>
<path d="M7.8372 43.1337H3.91864V47.0538H7.8372V43.1337Z" fill="#B6C9E3"/>
<path d="M11.7579 43.1337H7.83929V47.0538H11.7579V43.1337Z" fill="#F1F8F1"/>
<path d="M15.6784 43.1337H11.7599V47.0538H15.6784V43.1337Z" fill="#F1F8F1"/>
<path d="M19.599 43.1337H15.6805V47.0538H19.599V43.1337Z" fill="#F1F8F1"/>
<path d="M23.5177 43.1337H19.5992V47.0538H23.5177V43.1337Z" fill="#B6C9E3"/>
<path d="M27.4383 43.1337H23.5198V47.0538H27.4383V43.1337Z" fill="#6C8DBC"/>
<path d="M31.357 43.1337H27.4384V47.0538H31.357V43.1337Z" fill="#524A76"/>
<path d="M3.91854 47.057H0L0 50.9771H3.91854V47.057Z" fill="#524A76"/>
<path d="M7.8372 47.057H3.91864V50.9771H7.8372V47.057Z" fill="#6C8DBC"/>
<path d="M11.7579 47.057H7.83929V50.9771H11.7579V47.057Z" fill="#B6C9E3"/>
<path d="M15.6784 47.057H11.7599V50.9771H15.6784V47.057Z" fill="#E7E7E7"/>
<path d="M19.599 47.057H15.6805V50.9771H19.599V47.057Z" fill="#B6C9E3"/>
<path d="M23.5177 47.057H19.5992V50.9771H23.5177V47.057Z" fill="#6C8DBC"/>
<path d="M27.4383 47.057H23.5198V50.9771H27.4383V47.057Z" fill="#524A76"/>
<path d="M7.8372 50.9771H3.91864V54.8972H7.8372V50.9771Z" fill="#524A76"/>
<path d="M11.7579 50.9771H7.83929V54.8972H11.7579V50.9771Z" fill="#524A76"/>
<path d="M15.6784 50.9771H11.7599V54.8972H15.6784V50.9771Z" fill="#524A76"/>
<path d="M19.599 50.9771H15.6805V54.8972H19.599V50.9771Z" fill="#524A76"/>
<path d="M23.5177 50.9771H19.5992V54.8972H23.5177V50.9771Z" fill="#524A76"/>
</svg>
