<svg width="48" height="44" viewBox="0 0 48 44" fill="none" xmlns="http://www.w3.org/2000/svg">
<path d="M47.7177 0.325684L44.373 0.325684V3.41229H47.7177V0.325684Z" fill="#524A76"/>
<path d="M41.029 3.41211H37.6843V6.49872H41.029V3.41211Z" fill="#524A76"/>
<path d="M44.3734 3.41211H41.0286V6.49872H44.3734V3.41211Z" fill="#524A76"/>
<path d="M37.6827 6.49878H34.338V9.58539H37.6827V6.49878Z" fill="#524A76"/>
<path d="M41.029 6.49878H37.6843V9.58539H41.029V6.49878Z" fill="#524A76"/>
<path d="M44.3734 6.49878H41.0286V9.58539H44.3734V6.49878Z" fill="#524A76"/>
<path d="M34.3403 9.58521H30.9956V12.6718H34.3403V9.58521Z" fill="#524A76"/>
<path d="M37.6827 9.58521H34.338V12.6718H37.6827V9.58521Z" fill="#6C8DBC"/>
<path d="M41.029 9.58521H37.6843V12.6718H41.029V9.58521Z" fill="#524A76"/>
<path d="M27.6516 12.6722H24.3069V15.7589H27.6516V12.6722Z" fill="#524A76"/>
<path d="M30.994 12.6722H27.6493V15.7589H30.994V12.6722Z" fill="#524A76"/>
<path d="M34.3403 12.6722H30.9956V15.7589H34.3403V12.6722Z" fill="#6C8DBC"/>
<path d="M37.6827 12.6722H34.338V15.7589H37.6827V12.6722Z" fill="#524A76"/>
<path d="M24.3073 15.7587H20.9626V18.8453H24.3073V15.7587Z" fill="#524A76"/>
<path d="M27.6516 15.7587H24.3069V18.8453H27.6516V15.7587Z" fill="#6C8DBC"/>
<path d="M30.994 15.7587H27.6493V18.8453H30.994V15.7587Z" fill="#6C8DBC"/>
<path d="M34.3403 15.7587H30.9956V18.8453H34.3403V15.7587Z" fill="#524A76"/>
<path d="M20.961 18.8453H17.6162V21.9319H20.961V18.8453Z" fill="#524A76"/>
<path d="M17.6167 18.8453H14.2719V21.9319H17.6167V18.8453Z" fill="#524A76"/>
<path d="M14.2703 21.9319H10.9256V25.0185H14.2703V21.9319Z" fill="#524A76"/>
<path d="M10.926 25.0183H7.58127V28.1049H10.926V25.0183Z" fill="#524A76"/>
<path d="M7.58164 28.1052H4.23691V31.1918H7.58164V28.1052Z" fill="#524A76"/>
<path d="M4.23731 31.1917H0.892578L0.892578 34.2783H4.23731V31.1917Z" fill="#524A76"/>
<path d="M4.23731 34.2786H0.892578L0.892578 37.3652H4.23731V34.2786Z" fill="#524A76"/>
<path d="M4.23731 37.3649H0.892578L0.892578 40.4515H4.23731V37.3649Z" fill="#524A76"/>
<path d="M24.3073 18.8453H20.9626V21.9319H24.3073V18.8453Z" fill="#6C8DBC"/>
<path d="M27.6516 18.8453H24.3069V21.9319H27.6516V18.8453Z" fill="#B6C9E3"/>
<path d="M30.994 18.8453H27.6493V21.9319H30.994V18.8453Z" fill="#6C8DBC"/>
<path d="M34.3403 18.8453H30.9956V21.9319H34.3403V18.8453Z" fill="#524A76"/>
<path d="M17.6167 21.9319H14.2719V25.0185H17.6167V21.9319Z" fill="#B6C9E3"/>
<path d="M20.961 21.9319H17.6162V25.0185H20.961V21.9319Z" fill="#B6C9E3"/>
<path d="M24.3073 21.9319H20.9626V25.0185H24.3073V21.9319Z" fill="#B6C9E3"/>
<path d="M27.6516 21.9319H24.3069V25.0185H27.6516V21.9319Z" fill="#6C8DBC"/>
<path d="M30.994 21.9319H27.6493V25.0185H30.994V21.9319Z" fill="#524A76"/>
<path d="M14.2703 25.0183H10.9256V28.1049H14.2703V25.0183Z" fill="#B6C9E3"/>
<path d="M17.6167 25.0183H14.2719V28.1049H17.6167V25.0183Z" fill="#E7E7E7"/>
<path d="M20.961 25.0183H17.6162V28.1049H20.961V25.0183Z" fill="#E7E7E7"/>
<path d="M24.3073 25.0183H20.9626V28.1049H24.3073V25.0183Z" fill="#B6C9E3"/>
<path d="M27.6516 25.0183H24.3069V28.1049H27.6516V25.0183Z" fill="#524A76"/>
<path d="M27.6516 28.1052H24.3069V31.1918H27.6516V28.1052Z" fill="#524A76"/>
<path d="M24.3073 31.1917H20.9626V34.2783H24.3073V31.1917Z" fill="#524A76"/>
<path d="M20.961 34.2786H17.6162V37.3652H20.961V34.2786Z" fill="#524A76"/>
<path d="M17.6167 37.3649H14.2719V40.4515H17.6167V37.3649Z" fill="#524A76"/>
<path d="M14.2703 40.4515H10.9256V43.5382H14.2703V40.4515Z" fill="#524A76"/>
<path d="M10.926 40.4515H7.58127V43.5382H10.926V40.4515Z" fill="#524A76"/>
<path d="M7.58164 40.4515H4.23691V43.5382H7.58164V40.4515Z" fill="#524A76"/>
<path d="M10.926 28.1052H7.58127V31.1918H10.926V28.1052Z" fill="#B6C9E3"/>
<path d="M14.2703 28.1052H10.9256V31.1918H14.2703V28.1052Z" fill="#E7E7E7"/>
<path d="M17.6167 28.1052H14.2719V31.1918H17.6167V28.1052Z" fill="#F1F8F1"/>
<path d="M20.961 28.1052H17.6162V31.1918H20.961V28.1052Z" fill="#E7E7E7"/>
<path d="M24.3073 28.1052H20.9626V31.1918H24.3073V28.1052Z" fill="#B6C9E3"/>
<path d="M7.58164 31.1917H4.23691V34.2783H7.58164V31.1917Z" fill="#B6C9E3"/>
<path d="M10.926 31.1917H7.58127V34.2783H10.926V31.1917Z" fill="#F1F8F1"/>
<path d="M14.2703 31.1917H10.9256V34.2783H14.2703V31.1917Z" fill="#F1F8F1"/>
<path d="M17.6167 31.1917H14.2719V34.2783H17.6167V31.1917Z" fill="#E7E7E7"/>
<path d="M20.961 31.1917H17.6162V34.2783H20.961V31.1917Z" fill="#B6C9E3"/>
<path d="M7.58164 34.2786H4.23691V37.3652H7.58164V34.2786Z" fill="#F1F8F1"/>
<path d="M10.926 34.2786H7.58127V37.3652H10.926V34.2786Z" fill="#F1F8F1"/>
<path d="M14.2703 34.2786H10.9256V37.3652H14.2703V34.2786Z" fill="#F1F8F1"/>
<path d="M17.6167 34.2786H14.2719V37.3652H17.6167V34.2786Z" fill="#B6C9E3"/>
<path d="M7.58164 37.3649H4.23691V40.4515H7.58164V37.3649Z" fill="#F1F8F1"/>
<path d="M10.926 37.3649H7.58127V40.4515H10.926V37.3649Z" fill="#F1F8F1"/>
<path d="M14.2703 37.3649H10.9256V40.4515H14.2703V37.3649Z" fill="#B6C9E3"/>
</svg>
