<svg width="60" height="69" viewBox="0 0 60 69" fill="none" xmlns="http://www.w3.org/2000/svg">
<path d="M0.0441379 17.3241L0 47.6614C0.0158896 48.4689 0.880992 48.9681 1.57661 48.5705L7.4134 45.6024C7.74532 45.4135 7.95012 45.0569 7.95012 44.6719V12.158L0.579089 16.3739C0.241876 16.5665 0.0353103 16.9319 0.0423724 17.3241H0.0441379Z" fill="white"/>
<path d="M10.4434 19.937L18.0792 15.6034V39.3181L10.4434 43.559V19.937Z" fill="white"/>
<path d="M20.5409 4.93259L28.2703 0.408203V33.3571L20.5409 37.7888V4.93259Z" fill="white"/>
<path d="M31.0449 0.408325L59.0019 16.8783V25.7453L31.0485 9.16831L31.0449 0.408325Z" fill="white"/>
<path d="M38.6797 16.8785L58.999 28.8277V37.7891L38.6797 25.7455V16.8785Z" fill="white"/>
<path d="M31.0485 24.1107L59.0019 40.488V49.4494L31.0449 33.0686L31.0485 24.1107Z" fill="white"/>
<path d="M1.45117 51.6671L29.6253 35.6696L37.6407 40.103L9.36951 56.573L1.45117 51.6671Z" fill="white"/>
<path d="M22.084 63.8052L50.1327 47.3352L57.675 51.7633L29.6439 68.6237L22.084 63.8052Z" fill="white"/>
<path d="M13.1906 58.8598L19.3452 62.3235C19.6736 62.5107 20.0744 62.5071 20.3992 62.3146L27.9397 58.0772C28.6318 57.6672 28.6389 56.66 27.9521 56.2411L22.1859 52.5884C21.8558 52.3869 21.4444 52.3834 21.1107 52.5795L13.18 57.004C12.4721 57.4176 12.4774 58.4533 13.1906 58.858V58.8598Z" fill="white"/>
</svg>
