<svg width="124" height="16" viewBox="0 0 124 16" fill="none" xmlns="http://www.w3.org/2000/svg">
<path d="M0 0L4.15285 6.36061H9.53299L8.311 4.48815H12.1891L7.55999 11.5803L10.249 15.6984L20.498 0H0Z" fill="#595959"/>
<path d="M39.3904 10.9934C38.9836 11.392 38.4688 11.699 37.8429 11.9144C37.1455 12.1548 36.3452 12.2744 35.4412 12.2744C34.5372 12.2744 33.7048 12.1215 33.0198 11.8134C32.3358 11.5064 31.8106 11.0465 31.4453 10.4314C31.08 9.81745 30.8973 9.05673 30.8973 8.14823C30.8973 7.23974 31.0634 6.49255 31.3955 5.90561C31.7276 5.31868 32.2019 4.87744 32.8205 4.58398C33.4381 4.29051 34.1719 4.14378 35.0229 4.14378C35.7132 4.14378 36.338 4.22703 36.8964 4.39458C37.4548 4.56212 37.9228 4.80148 38.3017 5.11575C38.6805 5.43003 38.9286 5.80675 39.049 6.24695H43.7112C43.4984 5.08558 43.02 4.0574 42.2768 3.16244C41.5327 2.26851 40.5529 1.56711 39.3375 1.06031C38.1221 0.552468 36.6701 0.299588 34.9835 0.299588C33.7609 0.299588 32.6223 0.470256 31.5657 0.810551C30.5091 1.15085 29.5792 1.6514 28.7758 2.31222C27.9715 2.97304 27.3477 3.791 26.9024 4.76505C26.4572 5.74015 26.2351 6.86822 26.2351 8.14927C26.2351 9.43032 26.4572 10.5594 26.9024 11.5335C27.3477 12.5086 27.9621 13.3255 28.7457 13.9863C29.5293 14.6471 30.4323 15.1477 31.4557 15.489C32.478 15.8293 33.574 16 34.7438 16C35.9923 16 37.0811 15.8168 38.0121 15.4495C38.9421 15.0821 39.7122 14.5753 40.3235 13.927C40.3474 13.902 40.3702 13.8771 40.393 13.851V15.999H43.8503V7.74862H35.8003V10.9934H39.3904Z" fill="#595959"/>
<path d="M52.1203 0.638843L45.294 15.999H50.2448L51.5183 12.955H58.8645L60.1329 15.999H65.1054L58.2574 0.638843H52.1203ZM53.0772 9.23052L55.1976 4.16355L57.3108 9.23052H53.0772Z" fill="#595959"/>
<path d="M77.772 11.0267L73.7013 0.638843H66.5471V15.999H70.9509V4.72655L75.4543 15.999H80.0771L84.5609 4.70157V15.999H88.9844V0.638843H81.8104L77.772 11.0267Z" fill="#595959"/>
<path d="M91.0031 0.638843V15.999H105.171V12.2734H95.9331V9.96106H104.474V6.67674H95.9331V4.3644H105.171V0.638843H91.0031Z" fill="#595959"/>
<path d="M107.19 0.638843V4.28427H116.583L109.002 15.999H114.369L124 0.638843H107.19Z" fill="#595959"/>
</svg>
