<svg width="162" height="21" viewBox="0 0 162 21" fill="none" xmlns="http://www.w3.org/2000/svg">
<path d="M0 0.247925L5.4255 8.19868H12.4544L10.8579 5.85811H15.9245L9.87676 14.7233L13.3898 19.871L26.7796 0.247925H0Z" fill="white"/>
<path d="M51.4617 13.9897C50.9301 14.4879 50.2576 14.8716 49.4399 15.1409C48.5287 15.4414 47.4833 15.591 46.3022 15.591C45.1212 15.591 44.0337 15.3998 43.1388 15.0147C42.2452 14.631 41.5591 14.056 41.0818 13.2872C40.6045 12.5197 40.3658 11.5688 40.3658 10.4332C40.3658 9.2976 40.5828 8.36361 41.0167 7.62994C41.4506 6.89628 42.0703 6.34473 42.8784 5.9779C43.6852 5.61107 44.6439 5.42765 45.7558 5.42765C46.6575 5.42765 47.4738 5.53172 48.2033 5.74115C48.9328 5.95058 49.5443 6.24977 50.0393 6.64262C50.5342 7.03547 50.8583 7.50636 51.0156 8.05661H57.1066C56.8286 6.60489 56.2035 5.31968 55.2326 4.20097C54.2604 3.08357 52.9804 2.20681 51.3925 1.57331C49.8047 0.93851 47.9077 0.62241 45.7043 0.62241C44.1069 0.62241 42.6194 0.835745 41.2391 1.26111C39.8587 1.68648 38.6437 2.31218 37.5942 3.1382C36.5434 3.96422 35.7284 4.98667 35.1467 6.20424C34.565 7.42311 34.2748 8.8332 34.2748 10.4345C34.2748 12.0358 34.565 13.4472 35.1467 14.6648C35.7284 15.8837 36.5311 16.9048 37.5549 17.7308C38.5787 18.5569 39.7583 19.1826 41.0953 19.6092C42.431 20.0346 43.8629 20.2479 45.391 20.2479C47.0223 20.2479 48.4447 20.019 49.661 19.5598C50.8759 19.1006 51.882 18.4671 52.6807 17.6567C52.7119 17.6255 52.7417 17.5942 52.7715 17.5617V20.2466H57.2883V9.9337H46.7714V13.9897H51.4617Z" fill="white"/>
<path d="M68.0926 1.04648L59.1744 20.2466H65.6424L67.3062 16.4417H76.9037L78.5607 20.2466H85.0571L76.1104 1.04648H68.0926ZM69.3428 11.7861L72.113 5.45236L74.8738 11.7861H69.3428Z" fill="white"/>
<path d="M101.605 14.0313L96.2872 1.04648H86.9405V20.2466H92.6939V6.15611L98.5774 20.2466H104.617L110.475 6.12489V20.2466H116.254V1.04648H106.881L101.605 14.0313Z" fill="white"/>
<path d="M118.891 1.04648V20.2466H137.401V15.5897H125.332V12.6992H136.49V8.59385H125.332V5.70342H137.401V1.04648H118.891Z" fill="white"/>
<path d="M140.039 1.04648V5.60326H152.31L142.406 20.2466H149.418L162 1.04648H140.039Z" fill="white"/>
</svg>
