<svg width="69" height="101" viewBox="0 0 69 101" fill="none" xmlns="http://www.w3.org/2000/svg">
<path d="M36.8929 5.28052L31.623 5.28052L31.623 10.5609L36.8929 10.5609L36.8929 5.28052Z" fill="#F1F8F1"/>
<path d="M36.8929 0L31.623 0L31.623 5.28041L36.8929 5.28041L36.8929 0Z" fill="#F1F8F1"/>
<path d="M36.8929 10.5608L31.623 10.5608L31.623 15.8412L36.8929 15.8412L36.8929 10.5608Z" fill="#F1F8F1"/>
<path d="M42.1644 15.8442L36.8945 15.8442L36.8945 21.1246L42.1644 21.1246L42.1644 15.8442Z" fill="#F1F8F1"/>
<path d="M42.1644 10.5608L36.8945 10.5608L36.8945 15.8412L42.1644 15.8412L42.1644 10.5608Z" fill="#F1F8F1"/>
<path d="M31.6234 15.8442L26.3535 15.8442L26.3535 21.1246L31.6234 21.1246L31.6234 15.8442Z" fill="#F1F8F1"/>
<path d="M31.6234 10.5608L26.3535 10.5608L26.3535 15.8412L31.6234 15.8412L31.6234 10.5608Z" fill="#F1F8F1"/>
<path d="M42.1644 21.125L36.8945 21.125L36.8945 26.4054L42.1644 26.4054L42.1644 21.125Z" fill="#F1F8F1"/>
<path d="M31.6234 21.125L26.3535 21.125L26.3535 26.4054L31.6234 26.4054L31.6234 21.125Z" fill="#F1F8F1"/>
<path d="M42.1644 26.405L36.8945 26.405L36.8945 31.6854L42.1644 31.6854L42.1644 26.405Z" fill="#E7E7E7"/>
<path d="M31.6234 26.405L26.3535 26.405L26.3535 31.6854L31.6234 31.6854L31.6234 26.405Z" fill="#E7E7E7"/>
<path d="M36.8929 31.6885L31.623 31.6885L31.623 36.9689L36.8929 36.9689L36.8929 31.6885Z" fill="#B6C9E3"/>
<path d="M36.8929 36.969L31.623 36.969L31.623 42.2494L36.8929 42.2494L36.8929 36.969Z" fill="#B6C9E3"/>
<path d="M36.8929 42.2524L31.623 42.2524L31.623 47.5328L36.8929 47.5328L36.8929 42.2524Z" fill="#B6C9E3"/>
<path d="M57.9827 52.8132L52.7129 52.8132L52.7129 58.0936L57.9827 58.0936L57.9827 52.8132Z" fill="#F1F8F1"/>
<path d="M57.9827 58.0967L52.7129 58.0967L52.7129 63.377L57.9827 63.377L57.9827 58.0967Z" fill="#F1F8F1"/>
<path d="M57.9827 47.533L52.7129 47.533L52.7129 52.8134L57.9827 52.8134L57.9827 47.533Z" fill="#F1F8F1"/>
<path d="M57.9827 42.2524L52.7129 42.2524L52.7129 47.5328L57.9827 47.5328L57.9827 42.2524Z" fill="#F1F8F1"/>
<path d="M63.2503 36.969L57.9805 36.969L57.9805 42.2494L63.2503 42.2494L63.2503 36.969Z" fill="#B6C9E3"/>
<path d="M63.2503 31.6885L57.9805 31.6885L57.9805 36.9689L63.2503 36.9689L63.2503 31.6885Z" fill="#6C8DBC"/>
<path d="M52.7073 52.8134L47.4374 52.8134L47.4374 58.0938L52.7073 58.0938L52.7073 52.8134Z" fill="#F1F8F1"/>
<path d="M52.7073 47.5331L47.4374 47.5331L47.4374 52.8135L52.7073 52.8135L52.7073 47.5331Z" fill="#F1F8F1"/>
<path d="M52.7073 42.2527L47.4374 42.2527L47.4374 47.5331L52.7073 47.5331L52.7073 42.2527Z" fill="#F1F8F1"/>
<path d="M52.7073 36.9692L47.4374 36.9692L47.4374 42.2496L52.7073 42.2496L52.7073 36.9692Z" fill="#F1F8F1"/>
<path d="M36.8929 47.533L31.623 47.533L31.623 52.8134L36.8929 52.8134L36.8929 47.533Z" fill="#B6C9E3"/>
<path d="M31.6234 31.6885L26.3535 31.6885L26.3535 36.9689L31.6234 36.9689L31.6234 31.6885Z" fill="#E7E7E7"/>
<path d="M31.6234 36.969L26.3535 36.969L26.3535 42.2494L31.6234 42.2494L31.6234 36.969Z" fill="#E7E7E7"/>
<path d="M42.1644 31.6885L36.8945 31.6885L36.8945 36.9689L42.1644 36.9689L42.1644 31.6885Z" fill="#E7E7E7"/>
<path d="M42.1644 36.969L36.8945 36.969L36.8945 42.2494L42.1644 42.2494L42.1644 36.969Z" fill="#E7E7E7"/>
<path d="M36.8929 52.8132L31.623 52.8132L31.623 58.0936L36.8929 58.0936L36.8929 52.8132Z" fill="#B6C9E3"/>
<path d="M31.6234 42.2524L26.3535 42.2524L26.3535 47.5328L31.6234 47.5328L31.6234 42.2524Z" fill="#E7E7E7"/>
<path d="M42.1644 42.2524L36.8945 42.2524L36.8945 47.5328L42.1644 47.5328L42.1644 42.2524Z" fill="#E7E7E7"/>
<path d="M31.6234 47.533L26.3535 47.533L26.3535 52.8134L31.6234 52.8134L31.6234 47.533Z" fill="#E7E7E7"/>
<path d="M31.6234 52.8132L26.3535 52.8132L26.3535 58.0936L31.6234 58.0936L31.6234 52.8132Z" fill="#E7E7E7"/>
<path d="M42.1644 47.533L36.8945 47.533L36.8945 52.8134L42.1644 52.8134L42.1644 47.533Z" fill="#E7E7E7"/>
<path d="M42.1644 52.8132L36.8945 52.8132L36.8945 58.0936L42.1644 58.0936L42.1644 52.8132Z" fill="#E7E7E7"/>
<path d="M47.438 47.5331L42.1682 47.5331L42.1682 52.8135L47.438 52.8135L47.438 47.5331Z" fill="#E7E7E7"/>
<path d="M47.438 52.8134L42.1682 52.8134L42.1682 58.0938L47.438 58.0938L47.438 52.8134Z" fill="#E7E7E7"/>
<path d="M15.8128 52.8132L10.543 52.8132L10.543 58.0936L15.8128 58.0936L15.8128 52.8132Z" fill="#F1F8F1"/>
<path d="M15.8128 47.533L10.543 47.533L10.543 52.8134L15.8128 52.8134L15.8128 47.533Z" fill="#F1F8F1"/>
<path d="M15.8128 58.0967L10.543 58.0967L10.543 63.377L15.8128 63.377L15.8128 58.0967Z" fill="#F1F8F1"/>
<path d="M15.8128 42.2524L10.543 42.2524L10.543 47.5328L15.8128 47.5328L15.8128 42.2524Z" fill="#F1F8F1"/>
<path d="M10.5411 36.9692L5.27127 36.9692L5.27127 42.2496L10.5411 42.2496L10.5411 36.9692Z" fill="#B6C9E3"/>
<path d="M63.2503 42.2524L57.9805 42.2524L57.9805 47.5328L63.2503 47.5328L63.2503 42.2524Z" fill="#6C8DBC"/>
<path d="M10.5411 42.2527L5.27127 42.2527L5.27127 47.5331L10.5411 47.5331L10.5411 42.2527Z" fill="#6C8DBC"/>
<path d="M63.2503 47.533L57.9805 47.533L57.9805 52.8134L63.2503 52.8134L63.2503 47.533Z" fill="#B6C9E3"/>
<path d="M10.5411 47.5331L5.27127 47.5331L5.27127 52.8135L10.5411 52.8135L10.5411 47.5331Z" fill="#B6C9E3"/>
<path d="M63.2503 52.8132L57.9805 52.8132L57.9805 58.0936L63.2503 58.0936L63.2503 52.8132Z" fill="#6C8DBC"/>
<path d="M10.5411 52.8134L5.27127 52.8134L5.27127 58.0938L10.5411 58.0938L10.5411 52.8134Z" fill="#6C8DBC"/>
<path d="M63.2503 58.0967L57.9805 58.0967L57.9805 63.377L63.2503 63.377L63.2503 58.0967Z" fill="#B6C9E3"/>
<path d="M10.5411 58.0968L5.27127 58.0968L5.27127 63.3772L10.5411 63.3772L10.5411 58.0968Z" fill="#B6C9E3"/>
<path d="M63.2503 63.3772L57.9805 63.3772L57.9805 68.6576L63.2503 68.6576L63.2503 63.3772Z" fill="#6C8DBC"/>
<path d="M10.5411 63.3773L5.27127 63.3773L5.27127 68.6577L10.5411 68.6577L10.5411 63.3773Z" fill="#6C8DBC"/>
<path d="M10.5411 31.6887L5.27127 31.6887L5.27127 36.9691L10.5411 36.9691L10.5411 31.6887Z" fill="#6C8DBC"/>
<path d="M63.2503 26.405L57.9805 26.405L57.9805 31.6854L63.2503 31.6854L63.2503 26.405Z" fill="#B6C9E3"/>
<path d="M68.5218 42.2524L63.252 42.2524L63.252 47.5328L68.5218 47.5328L68.5218 42.2524Z" fill="#B6C9E3"/>
<path d="M68.5218 36.969L63.252 36.969L63.252 42.2494L68.5218 42.2494L68.5218 36.969Z" fill="#6C8DBC"/>
<path d="M68.5218 47.533L63.252 47.533L63.252 52.8134L68.5218 52.8134L68.5218 47.533Z" fill="#6C8DBC"/>
<path d="M68.5218 52.8132L63.252 52.8132L63.252 58.0936L68.5218 58.0936L68.5218 52.8132Z" fill="#B6C9E3"/>
<path d="M68.5218 58.0967L63.252 58.0967L63.252 63.377L68.5218 63.377L68.5218 58.0967Z" fill="#6C8DBC"/>
<path d="M68.5218 63.3772L63.252 63.3772L63.252 68.6576L68.5218 68.6576L68.5218 63.3772Z" fill="#B6C9E3"/>
<path d="M68.5218 68.658L63.252 68.658L63.252 73.9384L68.5218 73.9384L68.5218 68.658Z" fill="#6C8DBC"/>
<path d="M10.5411 26.4053L5.27127 26.4053L5.27127 31.6857L10.5411 31.6857L10.5411 26.4053Z" fill="#B6C9E3"/>
<path d="M5.26984 42.2527L0 42.2527L3.57532e-10 47.5331L5.26984 47.5331L5.26984 42.2527Z" fill="#B6C9E3"/>
<path d="M5.26984 47.5331L0 47.5331L3.57532e-10 52.8135L5.26984 52.8135L5.26984 47.5331Z" fill="#6C8DBC"/>
<path d="M5.26984 52.8134L0 52.8134L3.57532e-10 58.0938L5.26984 58.0938L5.26984 52.8134Z" fill="#B6C9E3"/>
<path d="M5.26984 58.0968L0 58.0968L3.5753e-10 63.3772L5.26984 63.3772L5.26984 58.0968Z" fill="#6C8DBC"/>
<path d="M5.26984 63.3773L0 63.3773L3.57532e-10 68.6577L5.26984 68.6577L5.26984 63.3773Z" fill="#B6C9E3"/>
<path d="M5.26984 68.6581L0 68.6581L3.57532e-10 73.9385L5.26984 73.9385L5.26984 68.6581Z" fill="#6C8DBC"/>
<path d="M63.2503 68.658L57.9805 68.658L57.9805 73.9384L63.2503 73.9384L63.2503 68.658Z" fill="#B6C9E3"/>
<path d="M10.5411 68.6581L5.27127 68.6581L5.27127 73.9385L10.5411 73.9385L10.5411 68.6581Z" fill="#B6C9E3"/>
<path d="M68.5218 73.9412L63.252 73.9412L63.252 79.2216L68.5218 79.2216L68.5218 73.9412Z" fill="#B6C9E3"/>
<path d="M5.26984 73.9413L0 73.9413L3.57532e-10 79.2217L5.26984 79.2217L5.26984 73.9413Z" fill="#B6C9E3"/>
<path d="M5.26984 36.9692L0 36.9692L3.57532e-10 42.2496L5.26984 42.2496L5.26984 36.9692Z" fill="#6C8DBC"/>
<path d="M21.0843 52.8132L15.8145 52.8132L15.8145 58.0936L21.0843 58.0936L21.0843 52.8132Z" fill="#F1F8F1"/>
<path d="M57.9827 63.3772L52.7129 63.3772L52.7129 68.6576L57.9827 68.6576L57.9827 63.3772Z" fill="#F1F8F1"/>
<path d="M52.7073 58.0968L47.4374 58.0968L47.4374 63.3772L52.7073 63.3772L52.7073 58.0968Z" fill="#F1F8F1"/>
<path d="M15.8128 63.3772L10.543 63.3772L10.543 68.6576L15.8128 68.6576L15.8128 63.3772Z" fill="#F1F8F1"/>
<path d="M21.0843 58.0967L15.8145 58.0967L15.8145 63.377L21.0843 63.377L21.0843 58.0967Z" fill="#F1F8F1"/>
<path d="M21.0843 47.533L15.8145 47.533L15.8145 52.8134L21.0843 52.8134L21.0843 47.533Z" fill="#F1F8F1"/>
<path d="M21.0843 42.2524L15.8145 42.2524L15.8145 47.5328L21.0843 47.5328L21.0843 42.2524Z" fill="#F1F8F1"/>
<path d="M21.0843 36.969L15.8145 36.969L15.8145 42.2494L21.0843 42.2494L21.0843 36.969Z" fill="#F1F8F1"/>
<path d="M26.3558 47.533L21.0859 47.533L21.0859 52.8134L26.3558 52.8134L26.3558 47.533Z" fill="#E7E7E7"/>
<path d="M47.438 36.9692L42.1682 36.9692L42.1682 42.2496L47.438 42.2496L47.438 36.9692Z" fill="#E7E7E7"/>
<path d="M47.438 31.6887L42.1682 31.6887L42.1682 36.9691L47.438 36.9691L47.438 31.6887Z" fill="#E7E7E7"/>
<path d="M26.3558 36.969L21.0859 36.969L21.0859 42.2494L26.3558 42.2494L26.3558 36.969Z" fill="#E7E7E7"/>
<path d="M31.6234 31.6885L26.3535 31.6885L26.3535 36.9689L31.6234 36.9689L31.6234 31.6885Z" fill="#E7E7E7"/>
<path d="M26.3558 31.6885L21.0859 31.6885L21.0859 36.9689L26.3558 36.9689L26.3558 31.6885Z" fill="#E7E7E7"/>
<path d="M47.438 26.4053L42.1682 26.4053L42.1682 31.6857L47.438 31.6857L47.438 26.4053Z" fill="#E7E7E7"/>
<path d="M26.3558 26.405L21.0859 26.405L21.0859 31.6854L26.3558 31.6854L26.3558 26.405Z" fill="#E7E7E7"/>
<path d="M26.3558 52.8132L21.0859 52.8132L21.0859 58.0936L26.3558 58.0936L26.3558 52.8132Z" fill="#E7E7E7"/>
<path d="M42.1644 68.658L36.8945 68.658L36.8945 73.9384L42.1644 73.9384L42.1644 68.658Z" fill="#E7E7E7"/>
<path d="M36.8929 73.9412L31.623 73.9412L31.623 79.2216L36.8929 79.2216L36.8929 73.9412Z" fill="#E7E7E7"/>
<path d="M36.8929 58.0967L31.623 58.0967L31.623 63.377L36.8929 63.377L36.8929 58.0967Z" fill="#B6C9E3"/>
<path d="M31.6234 68.658L26.3535 68.658L26.3535 73.9384L31.6234 73.9384L31.6234 68.658Z" fill="#E7E7E7"/>
<path d="M36.8929 79.2216L31.623 79.2216L31.623 84.502L36.8929 84.502L36.8929 79.2216Z" fill="#E7E7E7"/>
<path d="M36.8929 84.5021L31.623 84.5021L31.623 89.7825L36.8929 89.7825L36.8929 84.5021Z" fill="#F1F8F1"/>
<path d="M36.8929 95.0658L31.623 95.0658L31.623 100.346L36.8929 100.346L36.8929 95.0658Z" fill="#F1F8F1"/>
<path d="M31.6234 73.9412L26.3535 73.9412L26.3535 79.2216L31.6234 79.2216L31.6234 73.9412Z" fill="#E7E7E7"/>
<path d="M42.1644 73.9412L36.8945 73.9412L36.8945 79.2216L42.1644 79.2216L42.1644 73.9412Z" fill="#E7E7E7"/>
<path d="M31.6234 79.2216L26.3535 79.2216L26.3535 84.502L31.6234 84.502L31.6234 79.2216Z" fill="#F1F8F1"/>
<path d="M42.1644 79.2216L36.8945 79.2216L36.8945 84.502L42.1644 84.502L42.1644 79.2216Z" fill="#F1F8F1"/>
</svg>
