<svg width="42" height="40" viewBox="0 0 42 40" fill="none" xmlns="http://www.w3.org/2000/svg">
<path d="M22.7828 0L18.9844 0V3.57849H22.7828V0Z" fill="#524A76"/>
<path d="M22.7828 3.57886L18.9844 3.57886V7.15734L22.7828 7.15734V3.57886Z" fill="#524A76"/>
<path d="M22.7828 7.15405L18.9844 7.15405V10.7325L22.7828 10.7325V7.15405Z" fill="#6C8DBC"/>
<path d="M18.9859 10.7329L15.1875 10.7329V14.3114L18.9859 14.3114V10.7329Z" fill="#524A76"/>
<path d="M22.7828 10.7329L18.9844 10.7329V14.3114L22.7828 14.3114V10.7329Z" fill="#B6C9E3"/>
<path d="M26.5777 10.7329L22.7793 10.7329V14.3114L26.5777 14.3114V10.7329Z" fill="#524A76"/>
<path d="M15.191 14.312L11.3926 14.312V17.8905H15.191V14.312Z" fill="#524A76"/>
<path d="M18.9859 14.312L15.1875 14.312V17.8905H18.9859V14.312Z" fill="#6C8DBC"/>
<path d="M22.7828 14.312L18.9844 14.312V17.8905H22.7828V14.312Z" fill="#E7E7E7"/>
<path d="M26.5777 14.312L22.7793 14.312V17.8905H26.5777V14.312Z" fill="#6C8DBC"/>
<path d="M30.3785 14.312L26.5801 14.312V17.8905H30.3785V14.312Z" fill="#524A76"/>
<path d="M3.79841 17.887H0L0 21.4655H3.79841V17.887Z" fill="#524A76"/>
<path d="M7.59333 17.887H3.79492V21.4655H7.59333V17.887Z" fill="#524A76"/>
<path d="M11.3941 17.887H7.5957V21.4655H11.3941V17.887Z" fill="#6C8DBC"/>
<path d="M15.191 17.887H11.3926V21.4655H15.191V17.887Z" fill="#B6C9E3"/>
<path d="M18.9859 17.887H15.1875V21.4655H18.9859V17.887Z" fill="#E7E7E7"/>
<path d="M22.7828 17.887H18.9844V21.4655H22.7828V17.887Z" fill="#F1F8F1"/>
<path d="M26.5777 17.887H22.7793V21.4655H26.5777V17.887Z" fill="#E7E7E7"/>
<path d="M30.3785 17.887H26.5801V21.4655H30.3785V17.887Z" fill="#B6C9E3"/>
<path d="M34.1734 17.887H30.375V21.4655H34.1734V17.887Z" fill="#6C8DBC"/>
<path d="M37.9722 17.887H34.1738V21.4655H37.9722V17.887Z" fill="#524A76"/>
<path d="M41.7672 17.887H37.9688V21.4655H41.7672V17.887Z" fill="#524A76"/>
<path d="M15.191 21.4658H11.3926V25.0443H15.191V21.4658Z" fill="#524A76"/>
<path d="M18.9859 21.4658H15.1875V25.0443H18.9859V21.4658Z" fill="#6C8DBC"/>
<path d="M22.7828 21.4658H18.9844V25.0443H22.7828V21.4658Z" fill="#E7E7E7"/>
<path d="M26.5777 21.4658H22.7793V25.0443H26.5777V21.4658Z" fill="#6C8DBC"/>
<path d="M30.3785 21.4658H26.5801V25.0443H30.3785V21.4658Z" fill="#524A76"/>
<path d="M18.9859 25.041H15.1875V28.6195H18.9859V25.041Z" fill="#524A76"/>
<path d="M22.7828 25.041H18.9844V28.6195H22.7828V25.041Z" fill="#B6C9E3"/>
<path d="M26.5777 25.041H22.7793V28.6195H26.5777V25.041Z" fill="#524A76"/>
<path d="M22.7828 28.6199H18.9844V32.1984H22.7828V28.6199Z" fill="#6C8DBC"/>
<path d="M22.7828 32.1948H18.9844V35.7733H22.7828V32.1948Z" fill="#524A76"/>
<path d="M22.7828 35.7737H18.9844V39.3522H22.7828V35.7737Z" fill="#524A76"/>
</svg>
