<svg width="282" height="65" viewBox="0 0 282 65" fill="none" xmlns="http://www.w3.org/2000/svg">
<g clip-path="url(#clip0_0_3487)">
<path d="M96.8748 44.0047V53.0907H75.3205V36.4475H69.635V57.5225C69.635 57.8622 69.7582 58.1544 70.0047 58.399C70.2511 58.6436 70.5455 58.7659 70.8878 58.7659H101.309C101.674 58.7659 101.978 58.6436 102.225 58.399C102.471 58.1544 102.595 57.8622 102.595 57.5225V36.4475H96.8765V44.003L96.8748 44.0047Z" fill="white"/>
<path d="M131.293 50.4749L106.589 36.4492H105.336V58.7659H111.024V45.4401L134.472 58.7659H137.011V57.1879V54.5907V36.4492H131.293V50.4749Z" fill="white"/>
<path d="M172.07 36.4492H139.754V58.7676H145.472V49.6493H155.327L164.49 58.7676H172.553L163.366 49.6493H172.072C172.243 49.6493 172.394 49.5916 172.522 49.4744C172.65 49.3572 172.715 49.2026 172.715 49.0123V37.0879C172.715 36.918 172.65 36.7686 172.522 36.6412C172.394 36.5138 172.243 36.4492 172.072 36.4492H172.07ZM166.994 44.0048H164.119H145.47V42.1244H166.994V44.0048Z" fill="white"/>
<path d="M175.627 41.6131C175.627 41.7116 175.635 42.639 175.651 44.0048H175.627V58.7659H208.586V53.0908H181.345V49.6476H204.795V44.0048H181.345V42.1244H208.586V36.4492H175.627V41.6148V41.6131Z" fill="white"/>
<path d="M227.21 36.4492L219.629 46.6189C219.445 46.8551 216.36 50.8129 215.451 52.1871L210.537 58.7659H217.636L220.207 55.3228H236.75L239.321 58.7659H246.42L229.749 36.4475H227.21V36.4492ZM224.296 49.6493L228.463 44.2612L232.511 49.6493H224.296Z" fill="white"/>
<path d="M275.782 49.33V53.0908H254.26V46.9961V44.0048V36.4492H248.542V45.5029V46.9961V58.7659H281.5V49.33H275.782Z" fill="white"/>
<path d="M100.08 32.5645H102.617V10.2461H96.8988V24.4025L86.1387 18.4403L75.3445 24.3991V10.2461H69.6589V28.4504V29.5001V32.5645H72.1971L86.1387 24.8798L100.08 32.5645Z" fill="white"/>
<path d="M139.004 26.8893H111.763V23.4462H135.214V17.8016H111.763V15.9212H139.004V10.2461H106.045V17.8016V18.8089V32.5645H139.004V26.8893Z" fill="white"/>
<path d="M173.593 32.5645C173.936 32.5645 174.235 32.4422 174.492 32.1976C174.749 31.953 174.877 31.6608 174.877 31.3211V21.8206C174.877 21.4588 174.791 21.1938 174.62 21.024C174.449 20.8541 174.235 20.7369 173.978 20.674C173.722 20.6095 173.443 20.5789 173.143 20.5789H172.489C172.407 20.5789 172.34 20.5127 172.34 20.4311C172.34 20.3666 172.383 20.3122 172.443 20.2918C172.762 20.1797 173.027 19.9878 173.241 19.7194C173.477 19.4221 173.595 18.4132 173.595 18.7308V12.2046C173.595 11.1634 173.477 10.861 173.241 10.6164C173.005 10.3718 172.705 10.2495 172.342 10.2495H141.921V14.2158H141.856V24.2378H141.921V32.5662H173.595L173.593 32.5645ZM169.161 26.8893H147.637V24.2361H147.673V23.4462H169.161V26.8893ZM167.908 18.4828H147.673V15.923H167.908V18.4828Z" fill="white"/>
<path d="M212.257 19.4051C212.257 19.947 212.079 20.3988 211.727 20.764C211.372 21.1292 210.922 21.311 210.378 21.311V21.5131C210.922 21.5131 211.372 21.6966 211.727 22.0601C212.079 22.4253 212.257 22.8652 212.257 23.3782V30.7163C212.257 31.2582 212.079 31.71 211.727 32.0752C211.372 32.4404 210.922 32.6222 210.378 32.6222H182.638V26.9453H206.579V24.2292H188.317V18.5932H206.579V15.877H182.638V10.2002H210.378C210.922 10.2002 211.372 10.3819 211.727 10.7472C212.079 11.1124 212.257 11.5642 212.257 12.1061V19.4034V19.4051Z" fill="white"/>
<path d="M214.58 27.5586H219.521V32.4897H214.58V27.5586Z" fill="white"/>
<path d="M0.542787 16.1184L0.5 45.0258C0.515403 45.7953 1.35403 46.2709 2.02835 45.8921L7.68648 43.0639C8.00823 42.8839 8.20677 42.5441 8.20677 42.1772V11.1958L1.06136 15.2131C0.734472 15.3965 0.534229 15.7447 0.541075 16.1184H0.542787Z" fill="white"/>
<path d="M10.6234 18.6086L18.0255 14.4792V37.0762L10.6234 41.1173V18.6086Z" fill="white"/>
<path d="M20.4113 4.31114L27.9041 0V31.3959L20.4113 35.6187V4.31114Z" fill="white"/>
<path d="M30.5929 0L57.6941 15.6937V24.1427L30.5963 8.3471L30.5929 0Z" fill="white"/>
<path d="M37.9967 15.6936L57.6941 27.0796V35.6186L37.9967 24.1426V15.6936Z" fill="white"/>
<path d="M30.5963 22.585L57.6941 38.1903V46.7294L30.5929 31.1206L30.5963 22.585Z" fill="white"/>
<path d="M1.90686 48.8427L29.2186 33.5991L36.9886 37.8236L9.58282 53.5173L1.90686 48.8427Z" fill="white"/>
<path d="M21.9088 60.4085L49.099 44.7148L56.4104 48.9343L29.2373 65L21.9088 60.4085Z" fill="white"/>
<path d="M13.2882 55.6966L19.2544 58.997C19.5727 59.1754 19.9612 59.172 20.2761 58.9885L27.5858 54.9509C28.2567 54.5602 28.2636 53.6005 27.5978 53.2013L22.0081 49.7208C21.6881 49.5288 21.2893 49.5255 20.9658 49.7123L13.2779 53.9283C12.5916 54.3224 12.5967 55.3093 13.2882 55.6949V55.6966Z" fill="white"/>
</g>
<defs>
<clipPath id="clip0_0_3487">
<rect width="281" height="65" fill="white" transform="translate(0.5)"/>
</clipPath>
</defs>
</svg>
