<svg width="1169" height="1752" viewBox="0 0 1169 1752" fill="none" xmlns="http://www.w3.org/2000/svg">
<g opacity="0.6" filter="url(#filter0_f_0_4408)">
<ellipse cx="825.519" cy="875.858" rx="199.533" ry="249.789" fill="#875BF7"/>
</g>
<path d="M732.259 776.651L732 951.781C732.093 956.443 737.174 959.324 741.259 957.029L775.538 939.895C777.487 938.804 778.69 936.746 778.69 934.523V746.828L735.401 771.166C733.421 772.277 732.207 774.387 732.249 776.651H732.259Z" fill="#7087C4"/>
<path d="M793.329 791.737L838.173 766.72V903.62L793.329 928.102V791.737Z" fill="#7087C4"/>
<path d="M852.634 705.118L898.028 679V869.207L852.634 894.79V705.118Z" fill="#7087C4"/>
<path d="M914.318 679L1078.51 774.078V825.264L914.338 729.569L914.318 679Z" fill="#5A4C87"/>
<path d="M959.164 774.077L1078.5 843.057V894.789L959.164 825.264V774.077Z" fill="#5A4C87"/>
<path d="M914.338 815.827L1078.51 910.369V962.102L914.318 867.539L914.338 815.827Z" fill="#5A4C87"/>
<path d="M740.52 974.905L905.983 882.554L953.056 908.148L787.023 1003.23L740.52 974.905Z" fill="#7087C4"/>
<path d="M861.698 1044.97L1026.42 949.897L1070.72 975.46L906.096 1072.79L861.698 1044.97Z" fill="#7087C4"/>
<path d="M809.47 1016.43L845.616 1036.42C847.544 1037.5 849.898 1037.48 851.806 1036.37L896.09 1011.91C900.155 1009.54 900.196 1003.73 896.163 1001.31L862.299 980.225C860.36 979.062 857.944 979.041 855.984 980.173L809.408 1005.72C805.25 1008.1 805.281 1014.08 809.47 1016.42V1016.43Z" fill="#7087C4"/>
<defs>
<filter id="filter0_f_0_4408" x="0.199463" y="0.282959" width="1650.64" height="1751.15" filterUnits="userSpaceOnUse" color-interpolation-filters="sRGB">
<feFlood flood-opacity="0" result="BackgroundImageFix"/>
<feBlend mode="normal" in="SourceGraphic" in2="BackgroundImageFix" result="shape"/>
<feGaussianBlur stdDeviation="312.893" result="effect1_foregroundBlur_0_4408"/>
</filter>
</defs>
</svg>
