<svg width="400" height="401" viewBox="0 0 400 401" fill="none" xmlns="http://www.w3.org/2000/svg">
<path d="M27.7592 101.997L27.5 277.127C27.5933 281.789 32.674 284.671 36.7592 282.376L71.038 265.241C72.9873 264.151 74.1901 262.092 74.1901 259.87V72.174L30.9009 96.512C28.9205 97.6234 27.7074 99.733 27.7488 101.997H27.7592Z" fill="#7087C4"/>
<path d="M88.8281 117.083L133.673 92.0662V228.966L88.8281 253.448V117.083Z" fill="#7087C4"/>
<path d="M148.135 30.4645L193.529 4.34619V194.553L148.135 220.136V30.4645Z" fill="#7087C4"/>
<path d="M209.818 4.34619L374.006 99.4237V150.611L209.839 54.9156L209.818 4.34619Z" fill="#5A4C87"/>
<path d="M254.664 99.4231L373.997 168.403V220.135L254.664 150.61V99.4231Z" fill="#5A4C87"/>
<path d="M209.839 141.173L374.006 235.716V287.448L209.818 192.885L209.839 141.173Z" fill="#5A4C87"/>
<path d="M36.0195 300.251L201.483 207.901L248.556 233.494L82.523 328.572L36.0195 300.251Z" fill="#7087C4"/>
<path d="M157.197 370.321L321.924 275.243L366.219 300.806L201.596 398.137L157.197 370.321Z" fill="#7087C4"/>
<path d="M104.97 341.774L141.115 361.769C143.044 362.85 145.397 362.829 147.305 361.718L191.59 337.256C195.654 334.89 195.696 329.075 191.662 326.657L157.798 305.571C155.859 304.408 153.443 304.387 151.484 305.519L104.908 331.061C100.75 333.449 100.781 339.428 104.97 341.764V341.774Z" fill="#7087C4"/>
</svg>
