<svg width="347" height="394" viewBox="0 0 347 394" fill="none" xmlns="http://www.w3.org/2000/svg">
<path d="M0.259217 97.6509L0 272.781C0.093318 277.443 5.17396 280.324 9.25922 278.03L43.538 260.895C45.4873 259.804 46.6901 257.746 46.6901 255.523V67.8279L3.40092 92.1658C1.42051 93.2772 0.207373 95.3869 0.248848 97.6509H0.259217Z" fill="#7087C4"/>
<path d="M61.3281 112.737L106.173 87.72V224.62L61.3281 249.102V112.737Z" fill="#7087C4"/>
<path d="M120.635 26.1183L166.029 0V190.207L120.635 215.79V26.1183Z" fill="#7087C4"/>
<path d="M182.318 0L346.506 95.0775V146.264L182.339 50.5694L182.318 0Z" fill="#5A4C87"/>
<path d="M227.164 95.0769L346.497 164.057V215.789L227.164 146.264V95.0769Z" fill="#5A4C87"/>
<path d="M182.339 136.827L346.506 231.37V283.102L182.318 188.539L182.339 136.827Z" fill="#5A4C87"/>
<path d="M8.51953 295.905L173.983 203.554L221.056 229.148L55.023 324.225L8.51953 295.905Z" fill="#7087C4"/>
<path d="M129.697 365.975L294.424 270.897L338.719 296.46L174.096 393.791L129.697 365.975Z" fill="#7087C4"/>
<path d="M77.4698 337.428L113.615 357.423C115.544 358.504 117.897 358.483 119.805 357.372L164.09 332.91C168.154 330.543 168.196 324.729 164.162 322.311L130.298 301.225C128.359 300.062 125.943 300.041 123.984 301.173L77.4076 326.715C73.2498 329.103 73.2809 335.082 77.4698 337.418V337.428Z" fill="#7087C4"/>
</svg>
